<svg version="1.1" viewBox="0.0 0.0 1684.8005249343832 96.0" fill="none" stroke="none" stroke-linecap="square" stroke-miterlimit="10" xmlns:xlink="http://www.w3.org/1999/xlink" xmlns="http://www.w3.org/2000/svg"><clipPath id="p.0"><path d="m0 0l1684.8005 0l0 96.0l-1684.8005 0l0 -96.0z" clip-rule="nonzero"/></clipPath><g clip-path="url(#p.0)"><path fill="#000000" fill-opacity="0.0" d="m0 0l1684.8005 0l0 96.0l-1684.8005 0z" fill-rule="evenodd"/><path fill="#171717" d="m4.860071 4.800898l0 3.4904122l0 2.2619429l0 9.359766l1.177144 -0.1364975l0 -2.0279484c0 -2.0019493 0.66897774 -3.6789074 2.0069351 -5.0308743c1.3508205 -1.3519669 3.0168352 -2.0734491 4.9980383 -2.1644459l22.288553 0l0 71.6412c-0.0771904 2.0799484 -0.84908676 3.8609085 -2.315693 5.3428726c-1.466608 1.4819565 -3.2226753 2.2229385 -5.2682037 2.2229385l-1.5437965 0l0 1.189476l25.955067 0l0 -1.189476l-1.5437965 0c-2.0455284 0 -3.8015976 -0.74098206 -5.2682 -2.2229385c-1.4666061 -1.4819641 -2.2385063 -3.2629242 -2.3156967 -5.3428726l0 -71.6412l22.288555 0c1.9040146 0.09099674 3.5442963 0.812479 4.920845 2.1644459c1.3894196 1.3519669 2.0841293 3.028925 2.0841293 5.0308743l0 2.0279484l1.1771393 0.1364975l0 -9.359766l0 -2.2619429l0 -3.4904122c-0.70757294 0.32499075 -1.8911438 0.649982 -3.5507278 0.9749756c-1.659584 0.3119917 -3.460678 0.5914855 -5.403282 0.83847857c-1.9297485 0.23399448 -3.7630043 0.35099125 -5.499775 0.35099125l-39.733444 0c-1.6595802 0 -3.4799738 -0.116996765 -5.461178 -0.35099125c-1.9683399 -0.24699306 -3.7630024 -0.5264869 -5.3839884 -0.83847857c-1.6209855 -0.32499123 -2.8238606 -0.64998245 -3.6086226 -0.9749756z" fill-rule="evenodd"/><path stroke="#171717" stroke-width="1.0" stroke-linejoin="round" stroke-linecap="butt" d="m4.860071 4.800898l0 3.4904122l0 2.2619429l0 9.359766l1.177144 -0.1364975l0 -2.0279484c0 -2.0019493 0.66897774 -3.6789074 2.0069351 -5.0308743c1.3508205 -1.3519669 3.0168352 -2.0734491 4.9980383 -2.1644459l22.288553 0l0 71.6412c-0.0771904 2.0799484 -0.84908676 3.8609085 -2.315693 5.3428726c-1.466608 1.4819565 -3.2226753 2.2229385 -5.2682037 2.2229385l-1.5437965 0l0 1.189476l25.955067 0l0 -1.189476l-1.5437965 0c-2.0455284 0 -3.8015976 -0.74098206 -5.2682 -2.2229385c-1.4666061 -1.4819641 -2.2385063 -3.2629242 -2.3156967 -5.3428726l0 -71.6412l22.288555 0c1.9040146 0.09099674 3.5442963 0.812479 4.920845 2.1644459c1.3894196 1.3519669 2.0841293 3.028925 2.0841293 5.0308743l0 2.0279484l1.1771393 0.1364975l0 -9.359766l0 -2.2619429l0 -3.4904122c-0.70757294 0.32499075 -1.8911438 0.649982 -3.5507278 0.9749756c-1.659584 0.3119917 -3.460678 0.5914855 -5.403282 0.83847857c-1.9297485 0.23399448 -3.7630043 0.35099125 -5.499775 0.35099125l-39.733444 0c-1.6595802 0 -3.4799738 -0.116996765 -5.461178 -0.35099125c-1.9683399 -0.24699306 -3.7630024 -0.5264869 -5.3839884 -0.83847857c-1.6209855 -0.32499123 -2.8238606 -0.64998245 -3.6086226 -0.9749756z" fill-rule="evenodd"/><path fill="#171717" d="m167.94179 4.8606515c-0.70758057 0.31242847 -1.891159 0.63136625 -3.5507355 0.9568114c-1.6595764 0.31242847 -3.460678 0.5923128 -5.40329 0.8396511c-1.9297333 0.23432112 -3.7694244 0.3514819 -5.519058 0.3514819l-34.36876 0l0.11578369 1.2106595l1.428009 0c2.0455322 0 3.8208923 0.7420168 5.3260956 2.2260513c1.5052032 1.4710169 2.2577972 3.2479525 2.2577972 5.3308067l0 66.44958c-0.077178955 2.0828552 -0.84908295 3.8663025 -2.315689 5.350334c-1.4666061 1.4840393 -3.2226715 2.2260513 -5.2682037 2.2260513l-1.5437927 0l0 1.1911316l49.189194 0l6.8891907 -19.42913l-1.1964417 0c-1.2607727 3.033165 -2.7209473 5.7538986 -4.3805237 8.162193c-1.6595764 2.395279 -3.8144684 4.2568283 -6.4646454 5.584648c-2.650177 1.3148117 -6.0658264 1.9722061 -10.246948 1.9722061l-16.962448 0l0 -35.890194l20.030746 0c1.5823975 0 2.926773 0.585804 4.0331726 1.7574081c1.1063843 1.1585884 1.6595764 2.5384789 1.6595764 4.139675l0 1.796463l1.1964417 0l0 -7.6935463l0 -3.3586044l0 -7.9083405l-1.1964417 0l0 1.6793022c0 1.6011963 -0.55319214 2.9810905 -1.6595764 4.139675c-1.1063995 1.1585846 -2.4507751 1.7769356 -4.0331726 1.8550415l-20.030746 0l0 -37.0618l24.930939 0c1.5040131 0.2681713 2.7973938 0.97113514 3.8801422 2.1088905c1.3508301 1.39291 2.0262299 3.046176 2.0262299 4.959798l0 2.167471l1.1771545 0l0 -9.236159l0 -2.4017916l0 -3.4757648z" fill-rule="evenodd"/><path stroke="#171717" stroke-width="1.0" stroke-linejoin="round" stroke-linecap="butt" d="m167.94179 4.8606515c-0.70758057 0.31242847 -1.891159 0.63136625 -3.5507355 0.9568114c-1.6595764 0.31242847 -3.460678 0.5923128 -5.40329 0.8396511c-1.9297333 0.23432112 -3.7694244 0.3514819 -5.519058 0.3514819l-34.36876 0l0.11578369 1.2106595l1.428009 0c2.0455322 0 3.8208923 0.7420168 5.3260956 2.2260513c1.5052032 1.4710169 2.2577972 3.2479525 2.2577972 5.3308067l0 66.44958c-0.077178955 2.0828552 -0.84908295 3.8663025 -2.315689 5.350334c-1.4666061 1.4840393 -3.2226715 2.2260513 -5.2682037 2.2260513l-1.5437927 0l0 1.1911316l49.189194 0l6.8891907 -19.42913l-1.1964417 0c-1.2607727 3.033165 -2.7209473 5.7538986 -4.3805237 8.162193c-1.6595764 2.395279 -3.8144684 4.2568283 -6.4646454 5.584648c-2.650177 1.3148117 -6.0658264 1.9722061 -10.246948 1.9722061l-16.962448 0l0 -35.890194l20.030746 0c1.5823975 0 2.926773 0.585804 4.0331726 1.7574081c1.1063843 1.1585884 1.6595764 2.5384789 1.6595764 4.139675l0 1.796463l1.1964417 0l0 -7.6935463l0 -3.3586044l0 -7.9083405l-1.1964417 0l0 1.6793022c0 1.6011963 -0.55319214 2.9810905 -1.6595764 4.139675c-1.1063995 1.1585846 -2.4507751 1.7769356 -4.0331726 1.8550415l-20.030746 0l0 -37.0618l24.930939 0c1.5040131 0.2681713 2.7973938 0.97113514 3.8801422 2.1088905c1.3508301 1.39291 2.0262299 3.046176 2.0262299 4.959798l0 2.167471l1.1771545 0l0 -9.236159l0 -2.4017916l0 -3.4757648z" fill-rule="evenodd"/><path fill="#171717" d="m374.84927 4.80148l0.11578369 1.2417908l1.428009 0c2.0455322 0 3.8208923 0.7610979 5.3260803 2.2832932c1.5052185 1.5088434 2.2578125 3.3314724 2.2578125 5.467886l0 68.1583c-0.07720947 2.1364136 -0.8490906 3.9657211 -2.3157043 5.487915c-1.4666138 1.5222015 -3.2226562 2.2832947 -5.2681885 2.2832947l-1.5437927 0l0 1.2217636l25.955048 0l0 -1.2217636l-1.5437927 0c-2.0455322 0 -3.8016052 -0.76109314 -5.2681885 -2.2832947c-1.4666138 -1.5221939 -2.2385254 -3.3515015 -2.3157043 -5.487915l0 -73.44593l13.64328 0c5.0559387 0 8.966888 1.7224846 11.732849 5.167453c2.7659912 3.4449692 4.187561 7.9982014 4.26474 13.659702c0.07720947 1.3085518 0.038604736 2.6438122 -0.11578369 4.0057774c-0.15435791 1.3486099 -0.35379028 2.4702263 -0.59820557 3.364853c-1.0292053 3.5250854 -2.553711 6.275715 -4.573517 8.2519c-2.0069275 1.9628334 -4.174652 3.33815 -6.503235 4.1259537c-2.3285522 0.7744522 -4.541321 1.2217598 -6.6383057 1.3419342c-0.78637695 0.04506302 -1.5202942 0.067596436 -2.2017212 0.067596436c-1.1357422 0 -2.1257324 -0.06258774 -2.9700012 -0.18777084c-1.3379517 -0.20028687 -2.0069275 -0.3004341 -2.0069275 -0.3004341l0 1.2217636c2.997528 1.6423683 6.097992 2.5904007 9.301361 2.844101c0.6069641 0.045539856 1.2102051 0.0683136 1.8097839 0.0683136c2.5648193 0 5.0620117 -0.41667175 7.491577 -1.2500153c3.0104065 -1.0281487 5.699188 -2.5636978 8.066345 -4.6066437c2.380005 -2.056301 4.277588 -4.579941 5.692749 -7.570923c1.428009 -2.9909782 2.1419983 -6.3758583 2.1419983 -10.154644c0 -4.927107 -0.9906006 -9.173231 -2.9718018 -12.738373c-1.9683228 -3.5651417 -4.772888 -6.28907 -8.413666 -8.171785c-3.640808 -1.8960671 -7.9891663 -2.844102 -13.045074 -2.844102z" fill-rule="evenodd"/><path stroke="#171717" stroke-width="1.0" stroke-linejoin="round" stroke-linecap="butt" d="m374.84927 4.80148l0.11578369 1.2417908l1.428009 0c2.0455322 0 3.8208923 0.7610979 5.3260803 2.2832932c1.5052185 1.5088434 2.2578125 3.3314724 2.2578125 5.467886l0 68.1583c-0.07720947 2.1364136 -0.8490906 3.9657211 -2.3157043 5.487915c-1.4666138 1.5222015 -3.2226562 2.2832947 -5.2681885 2.2832947l-1.5437927 0l0 1.2217636l25.955048 0l0 -1.2217636l-1.5437927 0c-2.0455322 0 -3.8016052 -0.76109314 -5.2681885 -2.2832947c-1.4666138 -1.5221939 -2.2385254 -3.3515015 -2.3157043 -5.487915l0 -73.44593l13.64328 0c5.0559387 0 8.966888 1.7224846 11.732849 5.167453c2.7659912 3.4449692 4.187561 7.9982014 4.26474 13.659702c0.07720947 1.3085518 0.038604736 2.6438122 -0.11578369 4.0057774c-0.15435791 1.3486099 -0.35379028 2.4702263 -0.59820557 3.364853c-1.0292053 3.5250854 -2.553711 6.275715 -4.573517 8.2519c-2.0069275 1.9628334 -4.174652 3.33815 -6.503235 4.1259537c-2.3285522 0.7744522 -4.541321 1.2217598 -6.6383057 1.3419342c-0.78637695 0.04506302 -1.5202942 0.067596436 -2.2017212 0.067596436c-1.1357422 0 -2.1257324 -0.06258774 -2.9700012 -0.18777084c-1.3379517 -0.20028687 -2.0069275 -0.3004341 -2.0069275 -0.3004341l0 1.2217636c2.997528 1.6423683 6.097992 2.5904007 9.301361 2.844101c0.6069641 0.045539856 1.2102051 0.0683136 1.8097839 0.0683136c2.5648193 0 5.0620117 -0.41667175 7.491577 -1.2500153c3.0104065 -1.0281487 5.699188 -2.5636978 8.066345 -4.6066437c2.380005 -2.056301 4.277588 -4.579941 5.692749 -7.570923c1.428009 -2.9909782 2.1419983 -6.3758583 2.1419983 -10.154644c0 -4.927107 -0.9906006 -9.173231 -2.9718018 -12.738373c-1.9683228 -3.5651417 -4.772888 -6.28907 -8.413666 -8.171785c-3.640808 -1.8960671 -7.9891663 -2.844102 -13.045074 -2.844102z" fill-rule="evenodd"/><path fill="#171717" d="m478.0641 4.80148l0 1.2417908l1.5437927 0c2.0455322 0 3.8016052 0.7610979 5.268219 2.2832932c1.4666138 1.5088434 2.2384949 3.3314724 2.3157043 5.467886l0 68.1583c-0.07720947 2.1364136 -0.8490906 3.9657211 -2.3157043 5.487915c-1.4666138 1.5222015 -3.2226868 2.2832947 -5.268219 2.2832947l-1.5437927 0l0 1.2217636l49.18921 0l6.88916 -19.928741l-1.1964111 0c-1.2608032 3.1111526 -2.7209473 5.901848 -4.380554 8.37207c-1.6595459 2.4568787 -3.8144531 4.3663025 -6.4645996 5.728264c-2.6502075 1.3486176 -6.065857 2.0229187 -10.246979 2.0229187l-16.962433 0l0 -73.34579c0.077178955 -2.1364136 0.8490906 -3.9590425 2.3156738 -5.467886c1.4666138 -1.5221953 3.2226868 -2.2832932 5.268219 -2.2832932l1.5437927 0l0 -1.2417908z" fill-rule="evenodd"/><path stroke="#171717" stroke-width="1.0" stroke-linejoin="round" stroke-linecap="butt" d="m478.0641 4.80148l0 1.2417908l1.5437927 0c2.0455322 0 3.8016052 0.7610979 5.268219 2.2832932c1.4666138 1.5088434 2.2384949 3.3314724 2.3157043 5.467886l0 68.1583c-0.07720947 2.1364136 -0.8490906 3.9657211 -2.3157043 5.487915c-1.4666138 1.5222015 -3.2226868 2.2832947 -5.268219 2.2832947l-1.5437927 0l0 1.2217636l49.18921 0l6.88916 -19.928741l-1.1964111 0c-1.2608032 3.1111526 -2.7209473 5.901848 -4.380554 8.37207c-1.6595459 2.4568787 -3.8144531 4.3663025 -6.4645996 5.728264c-2.6502075 1.3486176 -6.065857 2.0229187 -10.246979 2.0229187l-16.962433 0l0 -73.34579c0.077178955 -2.1364136 0.8490906 -3.9590425 2.3156738 -5.467886c1.4666138 -1.5221953 3.2226868 -2.2832932 5.268219 -2.2832932l1.5437927 0l0 -1.2417908z" fill-rule="evenodd"/><path fill="#171717" d="m1292.7928 19.319946l0 0l0 0l14.318359 38.62953l-29.194458 0l14.876099 -38.62953l0 0l0 0zm0.17858887 -14.435722c0 0.63965416 -0.21838379 1.6448274 -0.6549072 3.0155168c-0.42382812 1.3576355 -0.9310303 2.7609596 -1.5217285 4.2099743c-0.5908203 1.4359608 -1.1044922 2.6565275 -1.5410156 3.6616983c-0.4366455 1.0051708 -0.6549072 1.5077572 -0.6549072 1.5077572l-27.156738 65.56676l0 0c-1.1989746 2.287178 -2.6640625 3.9552307 -4.3952637 5.004158c-1.9261475 1.1618195 -3.7946777 1.7427292 -5.6053467 1.7427292l-1.0594482 0l0 1.194458l23.789185 0l0 -1.194458l-1.0787354 0c-0.9503174 0 -1.8812256 -0.3002472 -2.7930908 -0.9007416c-0.8988037 -0.6135483 -1.5473633 -1.4816513 -1.9454346 -2.604309c-0.32946777 -0.9598923 -0.3161621 -2.096344 0.039794922 -3.40934l0 0l8.135498 -21.125996l31.917358 0l7.8031006 21.051952l0 0c0.6373291 2.1231003 0.41589355 3.7933426 -0.6641846 5.010727c-1.1815186 1.3184738 -2.5234375 1.9777069 -4.025879 1.9777069l-1.0594482 0l0 1.194458l26.620728 0l0 -1.194458l-0.94384766 0c-1.810669 0 -3.704834 -0.5809097 -5.682495 -1.7427292c-1.9775391 -1.174881 -3.557129 -3.12648 -4.7385254 -5.854805l-0.0036621094 0l-31.702393 -77.11106z" fill-rule="evenodd"/><path stroke="#171717" stroke-width="1.0" stroke-linejoin="round" stroke-linecap="butt" d="m1292.7928 19.319946l0 0l0 0l14.318359 38.62953l-29.194458 0l14.876099 -38.62953l0 0l0 0zm0.17858887 -14.435722c0 0.63965416 -0.21838379 1.6448274 -0.6549072 3.0155168c-0.42382812 1.3576355 -0.9310303 2.7609596 -1.5217285 4.2099743c-0.5908203 1.4359608 -1.1044922 2.6565275 -1.5410156 3.6616983c-0.4366455 1.0051708 -0.6549072 1.5077572 -0.6549072 1.5077572l-27.156738 65.56676l0 0c-1.1989746 2.287178 -2.6640625 3.9552307 -4.3952637 5.004158c-1.9261475 1.1618195 -3.7946777 1.7427292 -5.6053467 1.7427292l-1.0594482 0l0 1.194458l23.789185 0l0 -1.194458l-1.0787354 0c-0.9503174 0 -1.8812256 -0.3002472 -2.7930908 -0.9007416c-0.8988037 -0.6135483 -1.5473633 -1.4816513 -1.9454346 -2.604309c-0.32946777 -0.9598923 -0.3161621 -2.096344 0.039794922 -3.40934l0 0l8.135498 -21.125996l31.917358 0l7.8031006 21.051952l0 0c0.6373291 2.1231003 0.41589355 3.7933426 -0.6641846 5.010727c-1.1815186 1.3184738 -2.5234375 1.9777069 -4.025879 1.9777069l-1.0594482 0l0 1.194458l26.620728 0l0 -1.194458l-0.94384766 0c-1.810669 0 -3.704834 -0.5809097 -5.682495 -1.7427292c-1.9775391 -1.174881 -3.557129 -3.12648 -4.7385254 -5.854805l-0.0036621094 0l-31.702393 -77.11106z" fill-rule="evenodd"/><path fill="#171717" d="m1182.43 5.002551c-4.494507 0 -8.302124 0.9666891 -11.422607 2.900065c-3.107666 1.9205728 -5.451294 4.417318 -7.0307617 7.490235c-1.5795898 3.060112 -2.3692627 6.2482624 -2.3692627 9.564453c0 2.2790813 0.46862793 4.7374153 1.4061279 7.375002c0.9503174 2.6247826 2.6132812 5.0383034 4.9890137 7.2405586l22.710327 21.011066c1.5025635 1.331604 2.6453857 2.9256783 3.428833 4.7822266c0.7961426 1.84375 1.1942139 3.9051666 1.1942139 6.18425c0 4.7246094 -1.5603027 8.482521 -4.680786 11.273758c-3.1204834 2.7912369 -6.8446045 4.3084946 -11.172241 4.551758c-0.31640625 0.013969421 -0.6296387 0.020950317 -0.93969727 0.020950317c-3.1010742 0 -5.88916 -0.69838715 -8.364014 -2.095169c-2.722412 -1.5364532 -4.7963867 -3.7963257 -6.2218018 -6.7796173c-1.4125977 -2.9960938 -1.9197998 -6.4979477 -1.5217285 -10.505539l-1.0594482 0c-0.5522461 1.7285156 -0.98876953 3.6362915 -1.3098145 5.7233124c-0.32104492 2.0870132 -0.48156738 4.0780106 -0.48156738 5.9729767c0 1.882164 0.12194824 3.4506302 0.3659668 4.705406c1.5794678 1.5748672 3.5699463 2.8552475 5.9713135 3.8411484c2.4013672 0.98589325 4.8862305 1.6708984 7.45459 2.055008c2.5683594 0.39691925 4.7963867 0.5953827 6.684082 0.5953827c6.793213 0 12.180298 -2.0422134 16.161255 -6.1266327c3.980835 -4.0972214 5.9713135 -9.410805 5.9713135 -15.94075c0 -2.3559036 -0.3980713 -4.7886276 -1.1942139 -7.2981796c-0.78344727 -2.522358 -2.3564453 -4.8846626 -4.7193604 -7.086914l-23.307617 -21.49121c-1.8234863 -1.7285175 -3.0690918 -3.5914726 -3.7368164 -5.588869c-0.6678467 -2.0102005 -1.001709 -3.7643223 -1.001709 -5.262369c0 -3.6234837 1.341919 -6.786028 4.025879 -9.487631c2.683838 -2.7144108 6.196045 -4.071615 10.536499 -4.071615c3.6984863 0 6.851074 1.0819235 9.457886 3.2457685c2.6069336 2.151042 3.9102783 5.1151247 3.9102783 8.892253l1.0594482 0l0 -12.022787l0 -2.477539l-5.0252686 0c-0.4605713 -0.09683275 -0.93640137 -0.19286108 -1.4276123 -0.28808594c-1.3740234 -0.28168297 -2.7930908 -0.49934864 -4.25708 -0.65299463c-1.4638672 -0.16644907 -2.8250732 -0.24967432 -4.083618 -0.24967432z" fill-rule="evenodd"/><path stroke="#171717" stroke-width="1.0" stroke-linejoin="round" stroke-linecap="butt" d="m1182.43 5.002551c-4.494507 0 -8.302124 0.9666891 -11.422607 2.900065c-3.107666 1.9205728 -5.451294 4.417318 -7.0307617 7.490235c-1.5795898 3.060112 -2.3692627 6.2482624 -2.3692627 9.564453c0 2.2790813 0.46862793 4.7374153 1.4061279 7.375002c0.9503174 2.6247826 2.6132812 5.0383034 4.9890137 7.2405586l22.710327 21.011066c1.5025635 1.331604 2.6453857 2.9256783 3.428833 4.7822266c0.7961426 1.84375 1.1942139 3.9051666 1.1942139 6.18425c0 4.7246094 -1.5603027 8.482521 -4.680786 11.273758c-3.1204834 2.7912369 -6.8446045 4.3084946 -11.172241 4.551758c-0.31640625 0.013969421 -0.6296387 0.020950317 -0.93969727 0.020950317c-3.1010742 0 -5.88916 -0.69838715 -8.364014 -2.095169c-2.722412 -1.5364532 -4.7963867 -3.7963257 -6.2218018 -6.7796173c-1.4125977 -2.9960938 -1.9197998 -6.4979477 -1.5217285 -10.505539l-1.0594482 0c-0.5522461 1.7285156 -0.98876953 3.6362915 -1.3098145 5.7233124c-0.32104492 2.0870132 -0.48156738 4.0780106 -0.48156738 5.9729767c0 1.882164 0.12194824 3.4506302 0.3659668 4.705406c1.5794678 1.5748672 3.5699463 2.8552475 5.9713135 3.8411484c2.4013672 0.98589325 4.8862305 1.6708984 7.45459 2.055008c2.5683594 0.39691925 4.7963867 0.5953827 6.684082 0.5953827c6.793213 0 12.180298 -2.0422134 16.161255 -6.1266327c3.980835 -4.0972214 5.9713135 -9.410805 5.9713135 -15.94075c0 -2.3559036 -0.3980713 -4.7886276 -1.1942139 -7.2981796c-0.78344727 -2.522358 -2.3564453 -4.8846626 -4.7193604 -7.086914l-23.307617 -21.49121c-1.8234863 -1.7285175 -3.0690918 -3.5914726 -3.7368164 -5.588869c-0.6678467 -2.0102005 -1.001709 -3.7643223 -1.001709 -5.262369c0 -3.6234837 1.341919 -6.786028 4.025879 -9.487631c2.683838 -2.7144108 6.196045 -4.071615 10.536499 -4.071615c3.6984863 0 6.851074 1.0819235 9.457886 3.2457685c2.6069336 2.151042 3.9102783 5.1151247 3.9102783 8.892253l1.0594482 0l0 -12.022787l0 -2.477539l-5.0252686 0c-0.4605713 -0.09683275 -0.93640137 -0.19286108 -1.4276123 -0.28808594c-1.3740234 -0.28168297 -2.7930908 -0.49934864 -4.25708 -0.65299463c-1.4638672 -0.16644907 -2.8250732 -0.24967432 -4.083618 -0.24967432z" fill-rule="evenodd"/><path fill="#171717" d="m630.4741 4.801479c-0.70758057 0.31242847 -1.8911133 0.63136625 -3.5507202 0.9568114c-1.6596069 0.31242847 -3.4606934 0.5923128 -5.4032593 0.8396511c-1.9297485 0.23432112 -3.7694702 0.3514819 -5.519104 0.3514819l-34.368774 0l0.11578369 1.2106595l1.4280396 0c2.0455322 0 3.8209229 0.7420168 5.326111 2.2260513c1.505188 1.4710169 2.2578125 3.2479525 2.2578125 5.3308067l0 66.44958c-0.07720947 2.0828552 -0.8491211 3.8663025 -2.3157349 5.350334c-1.4666138 1.4840393 -3.2226562 2.2260513 -5.2681885 2.2260513l-1.5438232 0l0 1.1911316l49.18921 0l6.889221 -19.42913l-1.1964722 0c-1.2607422 3.033165 -2.7209473 5.7538986 -4.380493 8.162193c-1.6596069 2.395279 -3.8144531 4.2568283 -6.4646606 5.584656c-2.6502075 1.3148041 -6.065857 1.9721985 -10.246948 1.9721985l-16.962463 0l0 -35.890194l20.030762 0c1.5823975 0 2.9267578 0.585804 4.033142 1.7574081c1.1063843 1.1585884 1.6596069 2.5384827 1.6596069 4.139675l0 1.796463l1.1964111 0l0 -7.6935463l0 -3.3586044l0 -7.9083366l-1.1964111 0l0 1.6792984c0 1.6011963 -0.55322266 2.9810905 -1.6596069 4.139675c-1.1063843 1.1585884 -2.4507446 1.7769356 -4.033142 1.8550453l-20.030762 0l0 -37.061802l24.93097 0c1.5040283 0.2681713 2.7973633 0.97113514 3.880127 2.1088905c1.3508301 1.39291 2.026245 3.046176 2.026245 4.959799l0 2.167471l1.177124 0l0 -9.23616l0 -2.4017925l0 -3.4757638z" fill-rule="evenodd"/><path stroke="#171717" stroke-width="1.0" stroke-linejoin="round" stroke-linecap="butt" d="m630.4741 4.801479c-0.70758057 0.31242847 -1.8911133 0.63136625 -3.5507202 0.9568114c-1.6596069 0.31242847 -3.4606934 0.5923128 -5.4032593 0.8396511c-1.9297485 0.23432112 -3.7694702 0.3514819 -5.519104 0.3514819l-34.368774 0l0.11578369 1.2106595l1.4280396 0c2.0455322 0 3.8209229 0.7420168 5.326111 2.2260513c1.505188 1.4710169 2.2578125 3.2479525 2.2578125 5.3308067l0 66.44958c-0.07720947 2.0828552 -0.8491211 3.8663025 -2.3157349 5.350334c-1.4666138 1.4840393 -3.2226562 2.2260513 -5.2681885 2.2260513l-1.5438232 0l0 1.1911316l49.18921 0l6.889221 -19.42913l-1.1964722 0c-1.2607422 3.033165 -2.7209473 5.7538986 -4.380493 8.162193c-1.6596069 2.395279 -3.8144531 4.2568283 -6.4646606 5.584656c-2.6502075 1.3148041 -6.065857 1.9721985 -10.246948 1.9721985l-16.962463 0l0 -35.890194l20.030762 0c1.5823975 0 2.9267578 0.585804 4.033142 1.7574081c1.1063843 1.1585884 1.6596069 2.5384827 1.6596069 4.139675l0 1.796463l1.1964111 0l0 -7.6935463l0 -3.3586044l0 -7.9083366l-1.1964111 0l0 1.6792984c0 1.6011963 -0.55322266 2.9810905 -1.6596069 4.139675c-1.1063843 1.1585884 -2.4507446 1.7769356 -4.033142 1.8550453l-20.030762 0l0 -37.061802l24.93097 0c1.5040283 0.2681713 2.7973633 0.97113514 3.880127 2.1088905c1.3508301 1.39291 2.026245 3.046176 2.026245 4.959799l0 2.167471l1.177124 0l0 -9.23616l0 -2.4017925l0 -3.4757638z" fill-rule="evenodd"/><path fill="#171717" d="m1056.4784 5.0604115l0.115478516 1.2417908l1.4255371 0c2.041748 0 3.8139648 0.7610979 5.3164062 2.2832937c1.5024414 1.5088434 2.253662 3.3314724 2.253662 5.467886l0 68.1583c-0.07702637 2.1364136 -0.8475342 3.9657211 -2.3115234 5.487915c-1.4638672 1.5221939 -3.2167969 2.2832947 -5.258545 2.2832947l-1.5410156 0l0 1.2217636l25.907959 0l0 -1.2217636l-1.5410156 0c-2.041748 0 -3.7946777 -0.76110077 -5.258667 -2.2832947c-1.4638672 -1.5221939 -2.234375 -3.3515015 -2.3114014 -5.487915l0 -73.44593l13.61853 0c5.046753 0 8.950562 1.7224846 11.711548 5.167453c2.7609863 3.4449692 4.1799316 7.9982014 4.256958 13.6597c0.07714844 1.3085537 0.03857422 2.643814 -0.115478516 4.0057793c-0.1541748 1.348608 -0.3531494 2.4702282 -0.59716797 3.364851c-1.0273438 3.5250854 -2.5490723 6.2757187 -4.5651855 8.251904c-2.003296 1.9628296 -4.1671143 3.33815 -6.491455 4.12595c-2.3243408 0.7744522 -4.533081 1.2217636 -6.626343 1.3419342c-0.7849121 0.045066833 -1.517456 0.06760025 -2.197754 0.06760025c-1.133667 0 -2.1218262 -0.06259155 -2.9645996 -0.18777084c-1.3354492 -0.20029068 -2.003296 -0.3004341 -2.003296 -0.3004341l0 1.2217598c2.9921875 1.6423721 6.087036 2.5904045 9.284546 2.8441048c0.60583496 0.045539856 1.2080078 0.068309784 1.8065186 0.068309784c2.5601807 0 5.0528564 -0.41666794 7.4780273 -1.2500153c3.0048828 -1.0281487 5.688843 -2.5636978 8.051636 -4.6066437c2.3757324 -2.056301 4.2698975 -4.579941 5.682495 -7.570919c1.425415 -2.9909782 2.1380615 -6.375862 2.1380615 -10.154646c0 -4.927107 -0.98876953 -9.173231 -2.9664307 -12.738373c-1.9647217 -3.5651426 -4.76416 -6.289071 -8.3984375 -8.171786c-3.6341553 -1.8960671 -7.9746094 -2.844102 -13.021362 -2.844102z" fill-rule="evenodd"/><path stroke="#171717" stroke-width="1.0" stroke-linejoin="round" stroke-linecap="butt" d="m1056.4784 5.0604115l0.115478516 1.2417908l1.4255371 0c2.041748 0 3.8139648 0.7610979 5.3164062 2.2832937c1.5024414 1.5088434 2.253662 3.3314724 2.253662 5.467886l0 68.1583c-0.07702637 2.1364136 -0.8475342 3.9657211 -2.3115234 5.487915c-1.4638672 1.5221939 -3.2167969 2.2832947 -5.258545 2.2832947l-1.5410156 0l0 1.2217636l25.907959 0l0 -1.2217636l-1.5410156 0c-2.041748 0 -3.7946777 -0.76110077 -5.258667 -2.2832947c-1.4638672 -1.5221939 -2.234375 -3.3515015 -2.3114014 -5.487915l0 -73.44593l13.61853 0c5.046753 0 8.950562 1.7224846 11.711548 5.167453c2.7609863 3.4449692 4.1799316 7.9982014 4.256958 13.6597c0.07714844 1.3085537 0.03857422 2.643814 -0.115478516 4.0057793c-0.1541748 1.348608 -0.3531494 2.4702282 -0.59716797 3.364851c-1.0273438 3.5250854 -2.5490723 6.2757187 -4.5651855 8.251904c-2.003296 1.9628296 -4.1671143 3.33815 -6.491455 4.12595c-2.3243408 0.7744522 -4.533081 1.2217636 -6.626343 1.3419342c-0.7849121 0.045066833 -1.517456 0.06760025 -2.197754 0.06760025c-1.133667 0 -2.1218262 -0.06259155 -2.9645996 -0.18777084c-1.3354492 -0.20029068 -2.003296 -0.3004341 -2.003296 -0.3004341l0 1.2217598c2.9921875 1.6423721 6.087036 2.5904045 9.284546 2.8441048c0.60583496 0.045539856 1.2080078 0.068309784 1.8065186 0.068309784c2.5601807 0 5.0528564 -0.41666794 7.4780273 -1.2500153c3.0048828 -1.0281487 5.688843 -2.5636978 8.051636 -4.6066437c2.3757324 -2.056301 4.2698975 -4.579941 5.682495 -7.570919c1.425415 -2.9909782 2.1380615 -6.375862 2.1380615 -10.154646c0 -4.927107 -0.98876953 -9.173231 -2.9664307 -12.738373c-1.9647217 -3.5651426 -4.76416 -6.289071 -8.3984375 -8.171786c-3.6341553 -1.8960671 -7.9746094 -2.844102 -13.021362 -2.844102z" fill-rule="evenodd"/><path fill="#171717" d="m1381.8906 5.0604115l0 1.2417908l1.5410156 0c2.041748 0 3.7946777 0.7610979 5.258667 2.2832937c1.4638672 1.5088434 2.234375 3.3314724 2.3114014 5.467886l0 68.1583c-0.07702637 2.1364136 -0.8475342 3.9657211 -2.3114014 5.487915c-1.4639893 1.5221939 -3.216919 2.2832947 -5.258667 2.2832947l-1.5410156 0l0 1.2217636l49.099976 0l6.876709 -19.92875l-1.1942139 0c-1.2585449 3.1111603 -2.7160645 5.9018555 -4.3726807 8.372078c-1.6564941 2.456871 -3.807495 4.366295 -6.452881 5.728264c-2.6453857 1.3486099 -6.0548096 2.0229187 -10.228394 2.0229187l-16.93164 0l0 -73.34579c0.07702637 -2.1364136 0.8475342 -3.9590425 2.3115234 -5.467886c1.4638672 -1.5221958 3.2167969 -2.2832937 5.258545 -2.2832937l1.5410156 0l0 -1.2417908z" fill-rule="evenodd"/><path stroke="#171717" stroke-width="1.0" stroke-linejoin="round" stroke-linecap="butt" d="m1381.8906 5.0604115l0 1.2417908l1.5410156 0c2.041748 0 3.7946777 0.7610979 5.258667 2.2832937c1.4638672 1.5088434 2.234375 3.3314724 2.3114014 5.467886l0 68.1583c-0.07702637 2.1364136 -0.8475342 3.9657211 -2.3114014 5.487915c-1.4639893 1.5221939 -3.216919 2.2832947 -5.258667 2.2832947l-1.5410156 0l0 1.2217636l49.099976 0l6.876709 -19.92875l-1.1942139 0c-1.2585449 3.1111603 -2.7160645 5.9018555 -4.3726807 8.372078c-1.6564941 2.456871 -3.807495 4.366295 -6.452881 5.728264c-2.6453857 1.3486099 -6.0548096 2.0229187 -10.228394 2.0229187l-16.93164 0l0 -73.34579c0.07702637 -2.1364136 0.8475342 -3.9590425 2.3115234 -5.467886c1.4638672 -1.5221958 3.2167969 -2.2832937 5.258545 -2.2832937l1.5410156 0l0 -1.2417908z" fill-rule="evenodd"/><path fill="#171717" d="m1660.1799 5.002551c-4.494629 0 -8.302124 0.9666891 -11.4227295 2.900065c-3.107666 1.9205728 -5.451172 4.417318 -7.0307617 7.490235c-1.5794678 3.060112 -2.3692627 6.2482624 -2.3692627 9.564453c0 2.2790813 0.46875 4.7374153 1.4061279 7.375002c0.9503174 2.6247826 2.6132812 5.0383034 4.9890137 7.2405586l22.71045 21.011066c1.5024414 1.331604 2.6453857 2.9256783 3.428711 4.7822266c0.7961426 1.84375 1.1942139 3.9051666 1.1942139 6.18425c0 4.7246094 -1.5601807 8.482521 -4.680786 11.273758c-3.1204834 2.7912369 -6.8444824 4.3084946 -11.172119 4.551758c-0.31640625 0.013969421 -0.6296387 0.020950317 -0.93981934 0.020950317c-3.1010742 0 -5.889038 -0.69838715 -8.364014 -2.095169c-2.722412 -1.5364532 -4.7963867 -3.7963257 -6.2218018 -6.7796173c-1.4125977 -2.9960938 -1.9197998 -6.4979477 -1.5217285 -10.505539l-1.0594482 0c-0.552124 1.7285156 -0.98876953 3.6362915 -1.3098145 5.7233124c-0.32104492 2.0870132 -0.48156738 4.0780106 -0.48156738 5.9729767c0 1.882164 0.12207031 3.4506302 0.3659668 4.705406c1.5795898 1.5748672 3.5700684 2.8552475 5.9714355 3.8411484c2.4013672 0.98589325 4.8862305 1.6708984 7.45459 2.055008c2.5682373 0.39691925 4.7962646 0.5953827 6.68396 0.5953827c6.793335 0 12.180298 -2.0422134 16.161255 -6.1266327c3.980957 -4.0972214 5.9713135 -9.410805 5.9713135 -15.94075c0 -2.3559036 -0.3980713 -4.7886276 -1.1942139 -7.2981796c-0.7833252 -2.522358 -2.3564453 -4.8846626 -4.7193604 -7.086914l-23.307495 -21.49121c-1.8234863 -1.7285175 -3.0692139 -3.5914726 -3.7369385 -5.588869c-0.6677246 -2.0102005 -1.001709 -3.7643223 -1.001709 -5.262369c0 -3.6234837 1.342041 -6.786028 4.025879 -9.487631c2.68396 -2.7144108 6.196167 -4.071615 10.536621 -4.071615c3.6983643 0 6.850952 1.0819235 9.457886 3.2457685c2.6068115 2.151042 3.9102783 5.1151247 3.9102783 8.892253l1.0594482 0l0 -12.022787l0 -2.477539l-5.0253906 0c-0.4605713 -0.09683275 -0.93640137 -0.19286108 -1.4276123 -0.28808594c-1.3740234 -0.28168297 -2.7930908 -0.49934864 -4.256958 -0.65299463c-1.4639893 -0.16644907 -2.8251953 -0.24967432 -4.083618 -0.24967432z" fill-rule="evenodd"/><path stroke="#171717" stroke-width="1.0" stroke-linejoin="round" stroke-linecap="butt" d="m1660.1799 5.002551c-4.494629 0 -8.302124 0.9666891 -11.4227295 2.900065c-3.107666 1.9205728 -5.451172 4.417318 -7.0307617 7.490235c-1.5794678 3.060112 -2.3692627 6.2482624 -2.3692627 9.564453c0 2.2790813 0.46875 4.7374153 1.4061279 7.375002c0.9503174 2.6247826 2.6132812 5.0383034 4.9890137 7.2405586l22.71045 21.011066c1.5024414 1.331604 2.6453857 2.9256783 3.428711 4.7822266c0.7961426 1.84375 1.1942139 3.9051666 1.1942139 6.18425c0 4.7246094 -1.5601807 8.482521 -4.680786 11.273758c-3.1204834 2.7912369 -6.8444824 4.3084946 -11.172119 4.551758c-0.31640625 0.013969421 -0.6296387 0.020950317 -0.93981934 0.020950317c-3.1010742 0 -5.889038 -0.69838715 -8.364014 -2.095169c-2.722412 -1.5364532 -4.7963867 -3.7963257 -6.2218018 -6.7796173c-1.4125977 -2.9960938 -1.9197998 -6.4979477 -1.5217285 -10.505539l-1.0594482 0c-0.552124 1.7285156 -0.98876953 3.6362915 -1.3098145 5.7233124c-0.32104492 2.0870132 -0.48156738 4.0780106 -0.48156738 5.9729767c0 1.882164 0.12207031 3.4506302 0.3659668 4.705406c1.5795898 1.5748672 3.5700684 2.8552475 5.9714355 3.8411484c2.4013672 0.98589325 4.8862305 1.6708984 7.45459 2.055008c2.5682373 0.39691925 4.7962646 0.5953827 6.68396 0.5953827c6.793335 0 12.180298 -2.0422134 16.161255 -6.1266327c3.980957 -4.0972214 5.9713135 -9.410805 5.9713135 -15.94075c0 -2.3559036 -0.3980713 -4.7886276 -1.1942139 -7.2981796c-0.7833252 -2.522358 -2.3564453 -4.8846626 -4.7193604 -7.086914l-23.307495 -21.49121c-1.8234863 -1.7285175 -3.0692139 -3.5914726 -3.7369385 -5.588869c-0.6677246 -2.0102005 -1.001709 -3.7643223 -1.001709 -5.262369c0 -3.6234837 1.342041 -6.786028 4.025879 -9.487631c2.68396 -2.7144108 6.196167 -4.071615 10.536621 -4.071615c3.6983643 0 6.850952 1.0819235 9.457886 3.2457685c2.6068115 2.151042 3.9102783 5.1151247 3.9102783 8.892253l1.0594482 0l0 -12.022787l0 -2.477539l-5.0253906 0c-0.4605713 -0.09683275 -0.93640137 -0.19286108 -1.4276123 -0.28808594c-1.3740234 -0.28168297 -2.7930908 -0.49934864 -4.256958 -0.65299463c-1.4639893 -0.16644907 -2.8251953 -0.24967432 -4.083618 -0.24967432z" fill-rule="evenodd"/><path fill="#171717" d="m1504.0574 5.0597553l-8.818481 75.632164l-0.061523438 0c-0.32104492 2.3687134 -1.3099365 4.2060547 -2.9664307 5.512047c-1.6566162 1.29319 -3.5507812 1.9397812 -5.682495 1.9397812l-1.8876953 0l0 1.1715469l22.960815 0l0 -1.0563126l-1.7720947 0c-1.2585449 0 -2.343628 -0.5313568 -3.255371 -1.5940781c-0.91174316 -1.0627213 -1.3676758 -2.221466 -1.3676758 -3.4762344c0 -0.11357117 0 -0.20626831 0 -0.27811432l0 0l5.1691895 -57.29075l30.215942 65.34718l1.1943359 0c0.23120117 -1.6516953 0.66137695 -3.399414 1.2905273 -5.243164c0.64208984 -1.8565521 1.2585449 -3.4506302 1.8492432 -4.7822266c0.59069824 -1.3444061 0.8861084 -2.0166016 0.8861084 -2.0166016l24.801636 -55.070057l5.3634033 58.902393l0 0c0 0.022140503 0 0.044281006 0 0.06642151c0 0.076828 0 0.19846344 0 0.36491394c0 1.254776 -0.4366455 2.4135208 -1.3099365 3.4762344c-0.86035156 1.0627213 -1.958374 1.5940781 -3.2938232 1.5940781l-1.7722168 0l0 1.0563126l25.67688 0l0 -1.1715469l-1.8876953 0c-2.0546875 0 -3.9102783 -0.6465912 -5.5668945 -1.9397812c-1.5847168 -1.2493668 -2.593628 -2.9850159 -3.0266113 -5.206955l0 0l-9.166504 -75.937256l-1.0594482 0l-32.325806 71.18613l0 0l-33.01245 -71.18613z" fill-rule="evenodd"/><path stroke="#171717" stroke-width="1.0" stroke-linejoin="round" stroke-linecap="butt" d="m1504.0574 5.0597553l-8.818481 75.632164l-0.061523438 0c-0.32104492 2.3687134 -1.3099365 4.2060547 -2.9664307 5.512047c-1.6566162 1.29319 -3.5507812 1.9397812 -5.682495 1.9397812l-1.8876953 0l0 1.1715469l22.960815 0l0 -1.0563126l-1.7720947 0c-1.2585449 0 -2.343628 -0.5313568 -3.255371 -1.5940781c-0.91174316 -1.0627213 -1.3676758 -2.221466 -1.3676758 -3.4762344c0 -0.11357117 0 -0.20626831 0 -0.27811432l0 0l5.1691895 -57.29075l30.215942 65.34718l1.1943359 0c0.23120117 -1.6516953 0.66137695 -3.399414 1.2905273 -5.243164c0.64208984 -1.8565521 1.2585449 -3.4506302 1.8492432 -4.7822266c0.59069824 -1.3444061 0.8861084 -2.0166016 0.8861084 -2.0166016l24.801636 -55.070057l5.3634033 58.902393l0 0c0 0.022140503 0 0.044281006 0 0.06642151c0 0.076828 0 0.19846344 0 0.36491394c0 1.254776 -0.4366455 2.4135208 -1.3099365 3.4762344c-0.86035156 1.0627213 -1.958374 1.5940781 -3.2938232 1.5940781l-1.7722168 0l0 1.0563126l25.67688 0l0 -1.1715469l-1.8876953 0c-2.0546875 0 -3.9102783 -0.6465912 -5.5668945 -1.9397812c-1.5847168 -1.2493668 -2.593628 -2.9850159 -3.0266113 -5.206955l0 0l-9.166504 -75.937256l-1.0594482 0l-32.325806 71.18613l0 0l-33.01245 -71.18613z" fill-rule="evenodd"/><path fill="#171717" d="m241.40958 4.9718313l-8.834412 75.632164l-0.061706543 0c-0.32162476 2.3687057 -1.3122253 4.2060547 -2.971817 5.512047c-1.6595764 1.2931824 -3.5571594 1.9397736 -5.692734 1.9397736l-1.891159 0l0 1.1715546l23.002563 0l0 -1.0563202l-1.7753754 0c-1.2607574 0 -2.3478546 -0.5313568 -3.261261 -1.5940704c-0.9134064 -1.0627213 -1.3701172 -2.2214737 -1.3701172 -3.476242c0 -0.11356354 0 -0.20626068 0 -0.2781067l0 0l5.1784973 -57.290752l30.270905 65.34718l1.1964417 0c0.23156738 -1.6516876 0.66256714 -3.399414 1.2929382 -5.243164c0.6432495 -1.8565521 1.2607727 -3.4506226 1.8525391 -4.7822266c0.5917969 -1.3443985 0.8876953 -2.0166016 0.8876953 -2.0166016l24.84671 -55.070053l5.373108 58.902397l0 0c0 0.022140503 0 0.044281006 0 0.06642151c0 0.07682037 0 0.19846344 0 0.3649063c0 1.254776 -0.43740845 2.4135284 -1.3122253 3.476242c-0.861969 1.0627136 -1.9619141 1.5940704 -3.2998657 1.5940704l-1.7753906 0l0 1.0563202l25.72351 0l0 -1.1715546l-1.8911438 0c-2.0584106 0 -3.917389 -0.6465912 -5.5769653 -1.9397736c-1.5876465 -1.2493668 -2.5983582 -2.9850235 -3.0321655 -5.2069626l0 0l-9.183136 -75.93725l-1.0613403 0l-32.384552 71.18612l0 0l-33.072403 -71.18612z" fill-rule="evenodd"/><path stroke="#171717" stroke-width="1.0" stroke-linejoin="round" stroke-linecap="butt" d="m241.40958 4.9718313l-8.834412 75.632164l-0.061706543 0c-0.32162476 2.3687057 -1.3122253 4.2060547 -2.971817 5.512047c-1.6595764 1.2931824 -3.5571594 1.9397736 -5.692734 1.9397736l-1.891159 0l0 1.1715546l23.002563 0l0 -1.0563202l-1.7753754 0c-1.2607574 0 -2.3478546 -0.5313568 -3.261261 -1.5940704c-0.9134064 -1.0627213 -1.3701172 -2.2214737 -1.3701172 -3.476242c0 -0.11356354 0 -0.20626068 0 -0.2781067l0 0l5.1784973 -57.290752l30.270905 65.34718l1.1964417 0c0.23156738 -1.6516876 0.66256714 -3.399414 1.2929382 -5.243164c0.6432495 -1.8565521 1.2607727 -3.4506226 1.8525391 -4.7822266c0.5917969 -1.3443985 0.8876953 -2.0166016 0.8876953 -2.0166016l24.84671 -55.070053l5.373108 58.902397l0 0c0 0.022140503 0 0.044281006 0 0.06642151c0 0.07682037 0 0.19846344 0 0.3649063c0 1.254776 -0.43740845 2.4135284 -1.3122253 3.476242c-0.861969 1.0627136 -1.9619141 1.5940704 -3.2998657 1.5940704l-1.7753906 0l0 1.0563202l25.72351 0l0 -1.1715546l-1.8911438 0c-2.0584106 0 -3.917389 -0.6465912 -5.5769653 -1.9397736c-1.5876465 -1.2493668 -2.5983582 -2.9850235 -3.0321655 -5.2069626l0 0l-9.183136 -75.93725l-1.0613403 0l-32.384552 71.18612l0 0l-33.072403 -71.18612z" fill-rule="evenodd"/><path fill="#171717" d="m799.80634 8.363507c6.7403564 0 12.628479 1.6562262 17.664429 4.9686785c5.0358887 3.3124523 8.961365 7.9280624 11.776306 13.846823c2.8278809 5.9059258 4.2417603 12.806866 4.2417603 20.702827c0 7.883129 -1.4138794 14.784073 -4.2417603 20.702827c-2.8149414 5.91877 -6.7404175 10.53437 -11.776306 13.846825c-5.0359497 3.3124542 -10.924072 4.9686813 -17.664429 4.9686813c-6.662964 0 -12.518799 -1.6562271 -17.567627 -4.9686813c-5.0359497 -3.3124542 -8.961365 -7.928055 -11.776306 -13.846825c-2.8149414 -5.918762 -4.222412 -12.81971 -4.222412 -20.702827c0 -7.8959618 1.4074707 -14.796902 4.222412 -20.702827c2.8149414 -5.9187603 6.7403564 -10.53437 11.776306 -13.846823c5.048828 -3.3124523 10.904663 -4.9686785 17.567627 -4.9686785zm0 -3.5628128c-8.406128 0 -15.824463 1.7974558 -22.254944 5.3923645c-6.430481 3.5820713 -11.45343 8.608525 -15.06897 15.079362c-3.6026611 6.4708385 -5.4039307 14.007307 -5.4039307 22.609415c0 8.589268 1.8012695 16.119316 5.4039307 22.590157c3.6155396 6.4708405 8.638489 11.5037155 15.06897 15.098625c6.430481 3.5820694 13.848816 5.3731003 22.254944 5.3731003c8.483582 0 15.940613 -1.7910309 22.371094 -5.3731003c6.430481 -3.5949097 11.4470215 -8.627785 15.049622 -15.098625c3.6155396 -6.4708405 5.423279 -14.000889 5.423279 -22.590157c0 -8.602108 -1.8077393 -16.138577 -5.423279 -22.609415c-3.6026 -6.4708366 -8.619141 -11.497291 -15.049622 -15.079362c-6.430481 -3.5949087 -13.887512 -5.3923645 -22.371094 -5.3923645z" fill-rule="evenodd"/><path stroke="#171717" stroke-width="1.0" stroke-linejoin="round" stroke-linecap="butt" d="m799.80634 8.363507c6.7403564 0 12.628479 1.6562262 17.664429 4.9686785c5.0358887 3.3124523 8.961365 7.9280624 11.776306 13.846823c2.8278809 5.9059258 4.2417603 12.806866 4.2417603 20.702827c0 7.883129 -1.4138794 14.784073 -4.2417603 20.702827c-2.8149414 5.91877 -6.7404175 10.53437 -11.776306 13.846825c-5.0359497 3.3124542 -10.924072 4.9686813 -17.664429 4.9686813c-6.662964 0 -12.518799 -1.6562271 -17.567627 -4.9686813c-5.0359497 -3.3124542 -8.961365 -7.928055 -11.776306 -13.846825c-2.8149414 -5.918762 -4.222412 -12.81971 -4.222412 -20.702827c0 -7.8959618 1.4074707 -14.796902 4.222412 -20.702827c2.8149414 -5.9187603 6.7403564 -10.53437 11.776306 -13.846823c5.048828 -3.3124523 10.904663 -4.9686785 17.567627 -4.9686785zm0 -3.5628128c-8.406128 0 -15.824463 1.7974558 -22.254944 5.3923645c-6.430481 3.5820713 -11.45343 8.608525 -15.06897 15.079362c-3.6026611 6.4708385 -5.4039307 14.007307 -5.4039307 22.609415c0 8.589268 1.8012695 16.119316 5.4039307 22.590157c3.6155396 6.4708405 8.638489 11.5037155 15.06897 15.098625c6.430481 3.5820694 13.848816 5.3731003 22.254944 5.3731003c8.483582 0 15.940613 -1.7910309 22.371094 -5.3731003c6.430481 -3.5949097 11.4470215 -8.627785 15.049622 -15.098625c3.6155396 -6.4708405 5.423279 -14.000889 5.423279 -22.590157c0 -8.602108 -1.8077393 -16.138577 -5.423279 -22.609415c-3.6026 -6.4708366 -8.619141 -11.497291 -15.049622 -15.079362c-6.430481 -3.5949087 -13.887512 -5.3923645 -22.371094 -5.3923645z" fill-rule="evenodd"/><path fill="#171717" d="m937.6215 4.8009353c-0.7102051 0.31242847 -1.8981323 0.63136625 -3.5639038 0.9568114c-1.6657104 0.31242847 -3.4734497 0.5923128 -5.423279 0.8396511c-1.9368896 0.23432112 -3.7833862 0.3514819 -5.5394897 0.3514819l-34.496033 0l0.11621094 1.2106595l1.4332886 0c2.0531006 0 3.835022 0.7420168 5.345825 2.2260513c1.5107422 1.4710169 2.2661743 3.2479525 2.2661743 5.3308067l0 66.44958c-0.07751465 2.0828552 -0.8522339 3.8663025 -2.3242798 5.350334c-1.4720459 1.4840317 -3.2346191 2.2260513 -5.2877197 2.2260513l-1.5494995 0l0 1.1911316l26.051147 0l0 -1.1911316l-1.5494995 0c-2.0531006 0 -3.8156738 -0.74201965 -5.2877197 -2.2260513c-1.4720459 -1.4840317 -2.2467651 -3.267479 -2.3242798 -5.350334l0 -30.83276l20.10498 0c1.5882568 0 2.937622 0.5858002 4.0480957 1.7574081c1.1104736 1.1585846 1.6657104 2.5384789 1.6657104 4.139675l0 1.7964592l1.2008667 0l0 -7.6935425l0 -3.3586044l0 -7.9083405l-1.2008667 0l0 1.6793022c0 1.6011963 -0.5552368 2.9810867 -1.6657104 4.139675c-1.1104736 1.1585846 -2.4598389 1.7769356 -4.0480957 1.8550415l-20.10498 0l0 -37.0618l25.102112 0c1.5882568 0 2.9570312 0.57929325 4.106262 1.7378826c1.1621094 1.1585884 1.7431641 2.5384789 1.7431641 4.139673l0 1.796463l1.1815186 0l0 -7.674019l0 -2.4017916l0 -3.4757648z" fill-rule="evenodd"/><path stroke="#171717" stroke-width="1.0" stroke-linejoin="round" stroke-linecap="butt" d="m937.6215 4.8009353c-0.7102051 0.31242847 -1.8981323 0.63136625 -3.5639038 0.9568114c-1.6657104 0.31242847 -3.4734497 0.5923128 -5.423279 0.8396511c-1.9368896 0.23432112 -3.7833862 0.3514819 -5.5394897 0.3514819l-34.496033 0l0.11621094 1.2106595l1.4332886 0c2.0531006 0 3.835022 0.7420168 5.345825 2.2260513c1.5107422 1.4710169 2.2661743 3.2479525 2.2661743 5.3308067l0 66.44958c-0.07751465 2.0828552 -0.8522339 3.8663025 -2.3242798 5.350334c-1.4720459 1.4840317 -3.2346191 2.2260513 -5.2877197 2.2260513l-1.5494995 0l0 1.1911316l26.051147 0l0 -1.1911316l-1.5494995 0c-2.0531006 0 -3.8156738 -0.74201965 -5.2877197 -2.2260513c-1.4720459 -1.4840317 -2.2467651 -3.267479 -2.3242798 -5.350334l0 -30.83276l20.10498 0c1.5882568 0 2.937622 0.5858002 4.0480957 1.7574081c1.1104736 1.1585846 1.6657104 2.5384789 1.6657104 4.139675l0 1.7964592l1.2008667 0l0 -7.6935425l0 -3.3586044l0 -7.9083405l-1.2008667 0l0 1.6793022c0 1.6011963 -0.5552368 2.9810867 -1.6657104 4.139675c-1.1104736 1.1585846 -2.4598389 1.7769356 -4.0480957 1.8550415l-20.10498 0l0 -37.0618l25.102112 0c1.5882568 0 2.9570312 0.57929325 4.106262 1.7378826c1.1621094 1.1585884 1.7431641 2.5384789 1.7431641 4.139673l0 1.796463l1.1815186 0l0 -7.674019l0 -2.4017916l0 -3.4757648z" fill-rule="evenodd"/></g></svg>